<svg width="276" height="87" viewBox="0 0 276 87" fill="none" xmlns="http://www.w3.org/2000/svg">
<g clip-path="url(#clip0)">
<path d="M269.5 9.5H7.5V79.5H269.5V9.5Z" stroke="#AD7EEB"/>
<path d="M13 0H0V13H13V0Z" fill="white" stroke="#AD7EEB"/>
<path d="M275.5 0H262.5V13H275.5V0Z" fill="white" stroke="#AD7EEB"/>
<path d="M13 74H0V87H13V74Z" fill="white" stroke="#AD7EEB"/>
<path d="M275.5 74H262.5V87H275.5V74Z" fill="white" stroke="#AD7EEB"/>
<path d="M75.8102 50.2266H66.5641L64.8063 55.5H59.1988L68.7262 29.9062H73.6129L83.193 55.5H77.5855L75.8102 50.2266ZM67.9879 45.9551H74.3863L71.1695 36.375L67.9879 45.9551ZM102.388 46.166C102.388 49.2129 101.738 51.5918 100.437 53.3027C99.1363 55.002 97.3199 55.8516 94.9879 55.8516C92.9254 55.8516 91.2789 55.0605 90.0484 53.4785L89.8199 55.5H85.2496V28.5H90.3297V38.1855C91.5016 36.8145 93.0426 36.1289 94.9527 36.1289C97.273 36.1289 99.0895 36.9844 100.402 38.6953C101.726 40.3945 102.388 42.791 102.388 45.8848V46.166ZM97.3082 45.7969C97.3082 43.875 97.0035 42.4746 96.3941 41.5957C95.7848 40.7051 94.8766 40.2598 93.6695 40.2598C92.0523 40.2598 90.9391 40.9219 90.3297 42.2461V49.752C90.9508 51.0879 92.0758 51.7559 93.7047 51.7559C95.3453 51.7559 96.4234 50.9473 96.9391 49.3301C97.1852 48.5566 97.3082 47.3789 97.3082 45.7969ZM104.744 45.8145C104.744 43.9277 105.107 42.2461 105.834 40.7695C106.56 39.293 107.603 38.1504 108.963 37.3418C110.334 36.5332 111.921 36.1289 113.726 36.1289C116.293 36.1289 118.384 36.9141 120.002 38.4844C121.63 40.0547 122.539 42.1875 122.726 44.8828L122.761 46.1836C122.761 49.1016 121.947 51.4453 120.318 53.2148C118.689 54.9727 116.504 55.8516 113.761 55.8516C111.019 55.8516 108.828 54.9727 107.187 53.2148C105.558 51.457 104.744 49.0664 104.744 46.043V45.8145ZM109.824 46.1836C109.824 47.9883 110.164 49.3711 110.843 50.332C111.523 51.2812 112.496 51.7559 113.761 51.7559C114.992 51.7559 115.953 51.2871 116.644 50.3496C117.336 49.4004 117.681 47.8887 117.681 45.8145C117.681 44.0449 117.336 42.6738 116.644 41.7012C115.953 40.7285 114.98 40.2422 113.726 40.2422C112.484 40.2422 111.523 40.7285 110.843 41.7012C110.164 42.6621 109.824 44.1562 109.824 46.1836ZM137.281 53.5664C136.027 55.0898 134.293 55.8516 132.078 55.8516C130.039 55.8516 128.48 55.2656 127.402 54.0938C126.336 52.9219 125.791 51.2051 125.767 48.9434V36.4805H130.847V48.7676C130.847 50.748 131.75 51.7383 133.554 51.7383C135.277 51.7383 136.461 51.1406 137.105 49.9453V36.4805H142.203V55.5H137.421L137.281 53.5664ZM152.117 31.8047V36.4805H155.369V40.207H152.117V49.6992C152.117 50.4023 152.252 50.9062 152.521 51.2109C152.791 51.5156 153.306 51.668 154.068 51.668C154.63 51.668 155.129 51.627 155.562 51.5449V55.3945C154.566 55.6992 153.541 55.8516 152.486 55.8516C148.923 55.8516 147.107 54.0527 147.037 50.4551V40.207H144.259V36.4805H147.037V31.8047H152.117ZM174.388 29.9062L180.962 48.4688L187.502 29.9062H194.427V55.5H189.136V48.5039L189.664 36.4277L182.755 55.5H179.134L172.244 36.4453L172.771 48.5039V55.5H167.498V29.9062H174.388ZM207.453 55.8516C204.664 55.8516 202.39 54.9961 200.632 53.2852C198.886 51.5742 198.013 49.2949 198.013 46.4473V45.9551C198.013 44.0449 198.382 42.3398 199.121 40.8398C199.859 39.3281 200.902 38.168 202.25 37.3594C203.609 36.5391 205.156 36.1289 206.89 36.1289C209.492 36.1289 211.537 36.9492 213.025 38.5898C214.525 40.2305 215.275 42.5566 215.275 45.5684V47.6426H203.164C203.328 48.8848 203.82 49.8809 204.64 50.6309C205.472 51.3809 206.521 51.7559 207.787 51.7559C209.744 51.7559 211.273 51.0469 212.375 49.6289L214.871 52.4238C214.109 53.502 213.078 54.3457 211.777 54.9551C210.476 55.5527 209.035 55.8516 207.453 55.8516ZM206.873 40.2422C205.865 40.2422 205.045 40.582 204.412 41.2617C203.791 41.9414 203.392 42.9141 203.216 44.1797H210.283V43.7754C210.259 42.6504 209.955 41.7832 209.369 41.1738C208.783 40.5527 207.951 40.2422 206.873 40.2422Z" fill="black"/>
</g>
<defs>
<clipPath id="clip0">
<rect width="275.5" height="87" fill="white"/>
</clipPath>
</defs>
</svg>
