<svg width="276" height="87" viewBox="0 0 276 87" fill="none" xmlns="http://www.w3.org/2000/svg">
<g clip-path="url(#clip0)">
<path d="M269.5 9.5H7.5V79.5H269.5V9.5Z" stroke="#AD7EEB"/>
<path d="M13 0H0V13H13V0Z" fill="white" stroke="#AD7EEB"/>
<path d="M275.5 0H262.5V13H275.5V0Z" fill="white" stroke="#AD7EEB"/>
<path d="M13 74H0V87H13V74Z" fill="white" stroke="#AD7EEB"/>
<path d="M275.5 74H262.5V87H275.5V74Z" fill="white" stroke="#AD7EEB"/>
<path d="M55.7711 46.9746C55.5719 49.7285 54.5523 51.8965 52.7125 53.4785C50.8844 55.0605 48.4703 55.8516 45.4703 55.8516C42.1891 55.8516 39.6051 54.75 37.7184 52.5469C35.8434 50.332 34.9059 47.2969 34.9059 43.4414V41.877C34.9059 39.416 35.3395 37.248 36.2066 35.373C37.0738 33.498 38.3102 32.0625 39.9156 31.0664C41.5328 30.0586 43.4078 29.5547 45.5406 29.5547C48.4938 29.5547 50.8727 30.3457 52.6773 31.9277C54.482 33.5098 55.525 35.7305 55.8063 38.5898H50.5328C50.4039 36.9375 49.941 35.7422 49.1441 35.0039C48.359 34.2539 47.1578 33.8789 45.5406 33.8789C43.7828 33.8789 42.4645 34.5117 41.5855 35.7773C40.7184 37.0312 40.273 38.9824 40.2496 41.6309V43.5645C40.2496 46.3301 40.6656 48.3516 41.4977 49.6289C42.3414 50.9062 43.6656 51.5449 45.4703 51.5449C47.0992 51.5449 48.3121 51.1758 49.109 50.4375C49.9176 49.6875 50.3805 48.5332 50.4977 46.9746H55.7711ZM69.9215 55.5C69.6871 55.043 69.5172 54.4746 69.4117 53.7949C68.1813 55.166 66.5816 55.8516 64.6129 55.8516C62.7496 55.8516 61.2027 55.3125 59.9723 54.2344C58.7535 53.1562 58.1441 51.7969 58.1441 50.1562C58.1441 48.1406 58.8883 46.5938 60.3766 45.5156C61.8766 44.4375 64.0387 43.8926 66.8629 43.8809H69.2008V42.791C69.2008 41.9121 68.9723 41.209 68.5152 40.6816C68.0699 40.1543 67.3609 39.8906 66.3883 39.8906C65.5328 39.8906 64.859 40.0957 64.3668 40.5059C63.8863 40.916 63.6461 41.4785 63.6461 42.1934H58.566C58.566 41.0918 58.9059 40.0723 59.5855 39.1348C60.2652 38.1973 61.2262 37.4648 62.4684 36.9375C63.7105 36.3984 65.1051 36.1289 66.652 36.1289C68.9957 36.1289 70.8531 36.7207 72.2242 37.9043C73.607 39.0762 74.2984 40.7285 74.2984 42.8613V51.1055C74.3102 52.9102 74.5621 54.2754 75.0543 55.2012V55.5H69.9215ZM65.7203 51.9668C66.4703 51.9668 67.1617 51.8027 67.7945 51.4746C68.4273 51.1348 68.8961 50.6836 69.2008 50.1211V46.8516H67.3023C64.7594 46.8516 63.4059 47.7305 63.2418 49.4883L63.2242 49.7871C63.2242 50.4199 63.4469 50.9414 63.8922 51.3516C64.3375 51.7617 64.9469 51.9668 65.7203 51.9668ZM88.5016 50.2441C88.5016 49.623 88.191 49.1367 87.5699 48.7852C86.9605 48.4219 85.9762 48.0996 84.6168 47.8184C80.0934 46.8691 77.8316 44.9473 77.8316 42.0527C77.8316 40.3652 78.5289 38.959 79.9234 37.834C81.3297 36.6973 83.1637 36.1289 85.4254 36.1289C87.8395 36.1289 89.7672 36.6973 91.2086 37.834C92.6617 38.9707 93.3883 40.4473 93.3883 42.2637H88.3082C88.3082 41.5371 88.0738 40.9395 87.6051 40.4707C87.1363 39.9902 86.4039 39.75 85.4078 39.75C84.5523 39.75 83.8902 39.9434 83.4215 40.3301C82.9527 40.7168 82.7184 41.209 82.7184 41.8066C82.7184 42.3691 82.982 42.8262 83.5094 43.1777C84.0484 43.5176 84.9508 43.8164 86.2164 44.0742C87.482 44.3203 88.5484 44.6016 89.4156 44.918C92.0992 45.9023 93.441 47.6074 93.441 50.0332C93.441 51.7676 92.6969 53.1738 91.2086 54.252C89.7203 55.3184 87.7984 55.8516 85.443 55.8516C83.8492 55.8516 82.4313 55.5703 81.1891 55.0078C79.9586 54.4336 78.9918 53.6543 78.2887 52.6699C77.5855 51.6738 77.234 50.6016 77.234 49.4531H82.0504C82.0973 50.3555 82.4313 51.0469 83.0523 51.5273C83.6734 52.0078 84.5055 52.248 85.5484 52.248C86.5211 52.248 87.2535 52.0664 87.7457 51.7031C88.2496 51.3281 88.5016 50.8418 88.5016 50.2441ZM105.482 55.8516C102.693 55.8516 100.42 54.9961 98.6617 53.2852C96.9156 51.5742 96.0426 49.2949 96.0426 46.4473V45.9551C96.0426 44.0449 96.4117 42.3398 97.15 40.8398C97.8883 39.3281 98.9313 38.168 100.279 37.3594C101.638 36.5391 103.185 36.1289 104.92 36.1289C107.521 36.1289 109.566 36.9492 111.054 38.5898C112.554 40.2305 113.304 42.5566 113.304 45.5684V47.6426H101.193C101.357 48.8848 101.849 49.8809 102.67 50.6309C103.502 51.3809 104.55 51.7559 105.816 51.7559C107.773 51.7559 109.302 51.0469 110.404 49.6289L112.9 52.4238C112.138 53.502 111.107 54.3457 109.806 54.9551C108.505 55.5527 107.064 55.8516 105.482 55.8516ZM104.902 40.2422C103.894 40.2422 103.074 40.582 102.441 41.2617C101.82 41.9414 101.421 42.9141 101.246 44.1797H108.312V43.7754C108.289 42.6504 107.984 41.7832 107.398 41.1738C106.812 40.5527 105.98 40.2422 104.902 40.2422ZM135.47 50.2441C135.47 49.623 135.16 49.1367 134.539 48.7852C133.929 48.4219 132.945 48.0996 131.586 47.8184C127.062 46.8691 124.8 44.9473 124.8 42.0527C124.8 40.3652 125.498 38.959 126.892 37.834C128.298 36.6973 130.132 36.1289 132.394 36.1289C134.808 36.1289 136.736 36.6973 138.177 37.834C139.63 38.9707 140.357 40.4473 140.357 42.2637H135.277C135.277 41.5371 135.043 40.9395 134.574 40.4707C134.105 39.9902 133.373 39.75 132.377 39.75C131.521 39.75 130.859 39.9434 130.39 40.3301C129.921 40.7168 129.687 41.209 129.687 41.8066C129.687 42.3691 129.951 42.8262 130.478 43.1777C131.017 43.5176 131.92 43.8164 133.185 44.0742C134.451 44.3203 135.517 44.6016 136.384 44.918C139.068 45.9023 140.41 47.6074 140.41 50.0332C140.41 51.7676 139.666 53.1738 138.177 54.252C136.689 55.3184 134.767 55.8516 132.412 55.8516C130.818 55.8516 129.4 55.5703 128.158 55.0078C126.927 54.4336 125.961 53.6543 125.257 52.6699C124.554 51.6738 124.203 50.6016 124.203 49.4531H129.019C129.066 50.3555 129.4 51.0469 130.021 51.5273C130.642 52.0078 131.474 52.248 132.517 52.248C133.49 52.248 134.222 52.0664 134.714 51.7031C135.218 51.3281 135.47 50.8418 135.47 50.2441ZM149.779 31.8047V36.4805H153.031V40.207H149.779V49.6992C149.779 50.4023 149.914 50.9062 150.183 51.2109C150.453 51.5156 150.968 51.668 151.73 51.668C152.293 51.668 152.791 51.627 153.224 51.5449V55.3945C152.228 55.6992 151.203 55.8516 150.148 55.8516C146.586 55.8516 144.769 54.0527 144.699 50.4551V40.207H141.921V36.4805H144.699V31.8047H149.779ZM167.252 53.5664C165.998 55.0898 164.263 55.8516 162.048 55.8516C160.009 55.8516 158.451 55.2656 157.373 54.0938C156.306 52.9219 155.761 51.2051 155.738 48.9434V36.4805H160.818V48.7676C160.818 50.748 161.72 51.7383 163.525 51.7383C165.248 51.7383 166.431 51.1406 167.076 49.9453V36.4805H172.173V55.5H167.392L167.252 53.5664ZM175.214 45.8496C175.214 42.8848 175.877 40.5234 177.201 38.7656C178.537 37.0078 180.359 36.1289 182.668 36.1289C184.519 36.1289 186.048 36.8203 187.255 38.2031V28.5H192.353V55.5H187.765L187.519 53.4785C186.254 55.0605 184.625 55.8516 182.632 55.8516C180.394 55.8516 178.595 54.9727 177.236 53.2148C175.888 51.4453 175.214 48.9902 175.214 45.8496ZM180.295 46.2188C180.295 48 180.605 49.3652 181.226 50.3145C181.847 51.2637 182.75 51.7383 183.933 51.7383C185.504 51.7383 186.611 51.0762 187.255 49.752V42.2461C186.623 40.9219 185.527 40.2598 183.968 40.2598C181.519 40.2598 180.295 42.2461 180.295 46.2188ZM201.652 55.5H196.554V36.4805H201.652V55.5ZM196.255 31.5586C196.255 30.7969 196.507 30.1699 197.011 29.6777C197.527 29.1855 198.224 28.9395 199.103 28.9395C199.97 28.9395 200.662 29.1855 201.177 29.6777C201.693 30.1699 201.951 30.7969 201.951 31.5586C201.951 32.332 201.687 32.9648 201.16 33.457C200.644 33.9492 199.959 34.1953 199.103 34.1953C198.248 34.1953 197.556 33.9492 197.029 33.457C196.513 32.9648 196.255 32.332 196.255 31.5586ZM214.607 55.8516C211.818 55.8516 209.545 54.9961 207.787 53.2852C206.041 51.5742 205.168 49.2949 205.168 46.4473V45.9551C205.168 44.0449 205.537 42.3398 206.275 40.8398C207.013 39.3281 208.056 38.168 209.404 37.3594C210.763 36.5391 212.31 36.1289 214.045 36.1289C216.646 36.1289 218.691 36.9492 220.179 38.5898C221.679 40.2305 222.429 42.5566 222.429 45.5684V47.6426H210.318C210.482 48.8848 210.974 49.8809 211.795 50.6309C212.627 51.3809 213.675 51.7559 214.941 51.7559C216.898 51.7559 218.427 51.0469 219.529 49.6289L222.025 52.4238C221.263 53.502 220.232 54.3457 218.931 54.9551C217.63 55.5527 216.189 55.8516 214.607 55.8516ZM214.027 40.2422C213.019 40.2422 212.199 40.582 211.566 41.2617C210.945 41.9414 210.546 42.9141 210.371 44.1797H217.437V43.7754C217.414 42.6504 217.109 41.7832 216.523 41.1738C215.937 40.5527 215.105 40.2422 214.027 40.2422ZM235.63 50.2441C235.63 49.623 235.32 49.1367 234.699 48.7852C234.089 48.4219 233.105 48.0996 231.746 47.8184C227.222 46.8691 224.961 44.9473 224.961 42.0527C224.961 40.3652 225.658 38.959 227.052 37.834C228.459 36.6973 230.293 36.1289 232.554 36.1289C234.968 36.1289 236.896 36.6973 238.337 37.834C239.791 38.9707 240.517 40.4473 240.517 42.2637H235.437C235.437 41.5371 235.203 40.9395 234.734 40.4707C234.265 39.9902 233.533 39.75 232.537 39.75C231.681 39.75 231.019 39.9434 230.55 40.3301C230.082 40.7168 229.847 41.209 229.847 41.8066C229.847 42.3691 230.111 42.8262 230.638 43.1777C231.177 43.5176 232.08 43.8164 233.345 44.0742C234.611 44.3203 235.677 44.6016 236.545 44.918C239.228 45.9023 240.57 47.6074 240.57 50.0332C240.57 51.7676 239.826 53.1738 238.337 54.252C236.849 55.3184 234.927 55.8516 232.572 55.8516C230.978 55.8516 229.56 55.5703 228.318 55.0078C227.087 54.4336 226.121 53.6543 225.418 52.6699C224.714 51.6738 224.363 50.6016 224.363 49.4531H229.179C229.226 50.3555 229.56 51.0469 230.181 51.5273C230.802 52.0078 231.634 52.248 232.677 52.248C233.65 52.248 234.382 52.0664 234.875 51.7031C235.379 51.3281 235.63 50.8418 235.63 50.2441Z" fill="black"/>
</g>
<defs>
<clipPath id="clip0">
<rect width="275.5" height="87" fill="white"/>
</clipPath>
</defs>
</svg>
