<svg width="300" height="88" viewBox="0 0 300 88" fill="none" xmlns="http://www.w3.org/2000/svg">
<path d="M50.375 44.541H40.25V55H34.9766V29.4062H51.6406V33.6777H40.25V40.2871H50.375V44.541ZM62.7324 55.3516C59.9434 55.3516 57.6699 54.4961 55.9121 52.7852C54.166 51.0742 53.293 48.7949 53.293 45.9473V45.4551C53.293 43.5449 53.6621 41.8398 54.4004 40.3398C55.1387 38.8281 56.1816 37.668 57.5293 36.8594C58.8887 36.0391 60.4355 35.6289 62.1699 35.6289C64.7715 35.6289 66.8164 36.4492 68.3047 38.0898C69.8047 39.7305 70.5547 42.0566 70.5547 45.0684V47.1426H58.4434C58.6074 48.3848 59.0996 49.3809 59.9199 50.1309C60.752 50.8809 61.8008 51.2559 63.0664 51.2559C65.0234 51.2559 66.5527 50.5469 67.6543 49.1289L70.1504 51.9238C69.3887 53.002 68.3574 53.8457 67.0566 54.4551C65.7559 55.0527 64.3145 55.3516 62.7324 55.3516ZM62.1523 39.7422C61.1445 39.7422 60.3242 40.082 59.6914 40.7617C59.0703 41.4414 58.6719 42.4141 58.4961 43.6797H65.5625V43.2754C65.5391 42.1504 65.2344 41.2832 64.6484 40.6738C64.0625 40.0527 63.2305 39.7422 62.1523 39.7422ZM84.4766 55C84.2422 54.543 84.0723 53.9746 83.9668 53.2949C82.7363 54.666 81.1367 55.3516 79.168 55.3516C77.3047 55.3516 75.7578 54.8125 74.5273 53.7344C73.3086 52.6562 72.6992 51.2969 72.6992 49.6562C72.6992 47.6406 73.4434 46.0938 74.9316 45.0156C76.4316 43.9375 78.5938 43.3926 81.418 43.3809H83.7559V42.291C83.7559 41.4121 83.5273 40.709 83.0703 40.1816C82.625 39.6543 81.916 39.3906 80.9434 39.3906C80.0879 39.3906 79.4141 39.5957 78.9219 40.0059C78.4414 40.416 78.2012 40.9785 78.2012 41.6934H73.1211C73.1211 40.5918 73.4609 39.5723 74.1406 38.6348C74.8203 37.6973 75.7812 36.9648 77.0234 36.4375C78.2656 35.8984 79.6602 35.6289 81.207 35.6289C83.5508 35.6289 85.4082 36.2207 86.7793 37.4043C88.1621 38.5762 88.8535 40.2285 88.8535 42.3613V50.6055C88.8652 52.4102 89.1172 53.7754 89.6094 54.7012V55H84.4766ZM80.2754 51.4668C81.0254 51.4668 81.7168 51.3027 82.3496 50.9746C82.9824 50.6348 83.4512 50.1836 83.7559 49.6211V46.3516H81.8574C79.3145 46.3516 77.9609 47.2305 77.7969 48.9883L77.7793 49.2871C77.7793 49.9199 78.002 50.4414 78.4473 50.8516C78.8926 51.2617 79.502 51.4668 80.2754 51.4668ZM98.8379 31.3047V35.9805H102.09V39.707H98.8379V49.1992C98.8379 49.9023 98.9727 50.4062 99.2422 50.7109C99.5117 51.0156 100.027 51.168 100.789 51.168C101.352 51.168 101.85 51.127 102.283 51.0449V54.8945C101.287 55.1992 100.262 55.3516 99.207 55.3516C95.6445 55.3516 93.8281 53.5527 93.7578 49.9551V39.707H90.9805V35.9805H93.7578V31.3047H98.8379ZM116.311 53.0664C115.057 54.5898 113.322 55.3516 111.107 55.3516C109.068 55.3516 107.51 54.7656 106.432 53.5938C105.365 52.4219 104.82 50.7051 104.797 48.4434V35.9805H109.877V48.2676C109.877 50.248 110.779 51.2383 112.584 51.2383C114.307 51.2383 115.49 50.6406 116.135 49.4453V35.9805H121.232V55H116.451L116.311 53.0664ZM135.752 40.7441C135.061 40.6504 134.451 40.6035 133.924 40.6035C132.002 40.6035 130.742 41.2539 130.145 42.5547V55H125.064V35.9805H129.863L130.004 38.248C131.023 36.502 132.436 35.6289 134.24 35.6289C134.803 35.6289 135.33 35.7051 135.822 35.8574L135.752 40.7441ZM146.615 55.3516C143.826 55.3516 141.553 54.4961 139.795 52.7852C138.049 51.0742 137.176 48.7949 137.176 45.9473V45.4551C137.176 43.5449 137.545 41.8398 138.283 40.3398C139.021 38.8281 140.064 37.668 141.412 36.8594C142.771 36.0391 144.318 35.6289 146.053 35.6289C148.654 35.6289 150.699 36.4492 152.188 38.0898C153.688 39.7305 154.438 42.0566 154.438 45.0684V47.1426H142.326C142.49 48.3848 142.982 49.3809 143.803 50.1309C144.635 50.8809 145.684 51.2559 146.949 51.2559C148.906 51.2559 150.436 50.5469 151.537 49.1289L154.033 51.9238C153.271 53.002 152.24 53.8457 150.939 54.4551C149.639 55.0527 148.197 55.3516 146.615 55.3516ZM146.035 39.7422C145.027 39.7422 144.207 40.082 143.574 40.7617C142.953 41.4414 142.555 42.4141 142.379 43.6797H149.445V43.2754C149.422 42.1504 149.117 41.2832 148.531 40.6738C147.945 40.0527 147.113 39.7422 146.035 39.7422ZM156.547 45.3496C156.547 42.3848 157.209 40.0234 158.533 38.2656C159.869 36.5078 161.691 35.6289 164 35.6289C165.852 35.6289 167.381 36.3203 168.588 37.7031V28H173.686V55H169.098L168.852 52.9785C167.586 54.5605 165.957 55.3516 163.965 55.3516C161.727 55.3516 159.928 54.4727 158.568 52.7148C157.221 50.9453 156.547 48.4902 156.547 45.3496ZM161.627 45.7188C161.627 47.5 161.938 48.8652 162.559 49.8145C163.18 50.7637 164.082 51.2383 165.266 51.2383C166.836 51.2383 167.943 50.5762 168.588 49.252V41.7461C167.955 40.4219 166.859 39.7598 165.301 39.7598C162.852 39.7598 161.627 41.7461 161.627 45.7188ZM206.855 47.6172L210.301 29.4062H215.557L209.879 55H204.57L200.404 37.8789L196.238 55H190.93L185.252 29.4062H190.508L193.971 47.582L198.189 29.4062H202.654L206.855 47.6172ZM216.734 45.3145C216.734 43.4277 217.098 41.7461 217.824 40.2695C218.551 38.793 219.594 37.6504 220.953 36.8418C222.324 36.0332 223.912 35.6289 225.717 35.6289C228.283 35.6289 230.375 36.4141 231.992 37.9844C233.621 39.5547 234.529 41.6875 234.717 44.3828L234.752 45.6836C234.752 48.6016 233.938 50.9453 232.309 52.7148C230.68 54.4727 228.494 55.3516 225.752 55.3516C223.01 55.3516 220.818 54.4727 219.178 52.7148C217.549 50.957 216.734 48.5664 216.734 45.543V45.3145ZM221.814 45.6836C221.814 47.4883 222.154 48.8711 222.834 49.832C223.514 50.7812 224.486 51.2559 225.752 51.2559C226.982 51.2559 227.943 50.7871 228.635 49.8496C229.326 48.9004 229.672 47.3887 229.672 45.3145C229.672 43.5449 229.326 42.1738 228.635 41.2012C227.943 40.2285 226.971 39.7422 225.717 39.7422C224.475 39.7422 223.514 40.2285 222.834 41.2012C222.154 42.1621 221.814 43.6562 221.814 45.6836ZM248.568 40.7441C247.877 40.6504 247.268 40.6035 246.74 40.6035C244.818 40.6035 243.559 41.2539 242.961 42.5547V55H237.881V35.9805H242.68L242.82 38.248C243.84 36.502 245.252 35.6289 247.057 35.6289C247.619 35.6289 248.146 35.7051 248.639 35.8574L248.568 40.7441ZM257.938 47.3711L256.109 49.1992V55H251.029V28H256.109V42.959L257.094 41.6934L261.963 35.9805H268.062L261.189 43.9082L268.66 55H262.824L257.938 47.3711Z" fill="black"/>
<rect x="7.5" y="9.5" width="285" height="70" stroke="#AD7EEB"/>
<rect x="0.5" y="0.5" width="13" height="13" fill="white" stroke="#AD7EEB"/>
<rect x="286.5" y="0.5" width="13" height="13" fill="white" stroke="#AD7EEB"/>
<rect x="0.5" y="74.5" width="13" height="13" fill="white" stroke="#AD7EEB"/>
<rect x="286.5" y="74.5" width="13" height="13" fill="white" stroke="#AD7EEB"/>
</svg>
